# xmcd
#
# Track frame offsets:
#	150
#	10382
#	21132
#	32352
#	45042
#	56927
#	67177
#	79667
#	91917
#	106272
#	117107
#	130560
#	147947
#	159172
#	173245
#	189390
#	201227
#	214812
#	232172
#
# Disc length: 3248 seconds
# Revision: 3
# Processed by: cddbd v1.5.2PL0 Copyright (c) Steve Scherf et al.
# Submitted via: dBpowerAMP V12.0
#
DISCID=f80cae13
DTITLE=John Lee Hooker - Blues is my Favourite Colour.
DYEAR=1900
DGENRE=Blues
TTITLE0=Dimples
TTITLE1=Maudie
TTITLE2=Shake, Holler and Run
TTITLE3=Hobo Blues
TTITLE4=Crawlin' King Snake
TTITLE5=Want Ad Blues
TTITLE6=I'm In The Mood
TTITLE7=Whiskey and Wimmen
TTITLE8=Cool Little Car
TTITLE9=Gotta Boogie
TTITLE10=Ride 'Till I Die
TTITLE11=Wednesday Evening Blues
TTITLE12=No Shoes
TTITLE13=Half a Stranger
TTITLE14=My First Life Left Me
TTITLE15=I Love You Honey
TTITLE16=Time is Marching
TTITLE17=Blues Before Sunrise
TTITLE18=Boom Boom
EXTD=
EXTT0=
EXTT1=
EXTT2=
EXTT3=
EXTT4=
EXTT5=
EXTT6=
EXTT7=
EXTT8=
EXTT9=
EXTT10=
EXTT11=
EXTT12=
EXTT13=
EXTT14=
EXTT15=
EXTT16=
EXTT17=
EXTT18=
PLAYORDER=
